<?xml version="1.0" encoding="utf-8"?>
<!-- Generator: Adobe Illustrator 22.1.0, SVG Export Plug-In . SVG Version: 6.00 Build 0)  -->
<svg version="1.1" id="Calque_1" xmlns="http://www.w3.org/2000/svg" xmlns:xlink="http://www.w3.org/1999/xlink" x="0px" y="0px"
	 viewBox="0 0 152 103" style="enable-background:new 0 0 152 103;" xml:space="preserve">
<style type="text/css">
	.st0{fill:#E6D7D2;}
</style>
<g id="icone_4_">
	<circle class="st0" cx="76" cy="19.6" r="17.6"/>
	<path class="st0" d="M50.5,56.7c6,2.4,11.3,6.2,15.7,11.2l3.1,3.5c3.9,4.4,5.8,9.9,5.8,15.5c0,0.6,0.4,1,1,1l0,0c0.6,0,1-0.5,1-1
		c-0.1-5.6,1.9-11.1,5.8-15.5l3.1-3.5c4.3-5,9.7-8.8,15.7-11.2C87.7,41.9,64.3,41.9,50.5,56.7z"/>
</g>
<g id="icone_1_">
	<path class="st0" d="M8.4,72.5L5.4,76c-9.2,10.5-1.7,27,12.2,27h34.1c14,0,21.4-16.4,12.2-27l-3.1-3.5C47,56.6,22.3,56.6,8.4,72.5z
		"/>
	<circle class="st0" cx="34.7" cy="33.1" r="19.1"/>
</g>
<g id="icone_2_">
	<path class="st0" d="M91.1,72.5L88,76c-9.2,10.5-1.7,27,12.2,27h34.1c14,0,21.4-16.4,12.2-27l-3.1-3.5
		C129.7,56.6,105,56.6,91.1,72.5z"/>
	<circle class="st0" cx="117.3" cy="33.1" r="19.1"/>
</g>
</svg>
