<?xml version="1.0" encoding="utf-8"?>
<!-- Generator: Adobe Illustrator 22.1.0, SVG Export Plug-In . SVG Version: 6.00 Build 0)  -->
<svg version="1.1" id="Calque_1" xmlns="http://www.w3.org/2000/svg" xmlns:xlink="http://www.w3.org/1999/xlink" x="0px" y="0px"
	 viewBox="0 0 91.2 109.2" style="enable-background:new 0 0 91.2 109.2;" xml:space="preserve">
<style type="text/css">
	.st0{fill:#FFFFFF;}
	.st1{fill:#4D3290;}
	.st2{fill:#6A4B9D;}
</style>
<g>
	<rect x="0.5" y="0.6" class="st0" width="90.1" height="61.8"/>
	<path class="st0" d="M0.5,62.4c0-24.9,20.2-45,45-45c24.9,0,45,20.2,45,45c0,24.9-20.2,45-45,45C20.7,107.5,0.5,87.3,0.5,62.4"/>
	<polygon class="st1" points="51.6,46.9 51.6,46.9 60.6,51 69.7,47.6 45.5,38.5 21.3,47.6 45.5,56.6 54.6,53.2 45.5,49.5 45.5,49.5 
			"/>
	<path class="st1" d="M21.3,50.6v27.2L44,86.3V59.1L21.3,50.6z M33.4,77.9l-6-2.3v-3.2l6,2.3V77.9z"/>
	<polygon class="st2" points="60.6,54 60.6,61.6 54.6,63.8 54.6,56.3 47,59.1 47,86.3 69.7,77.8 69.7,50.6 	"/>
</g>
</svg>
