<?xml version="1.0" encoding="utf-8"?>
<!-- Generator: Adobe Illustrator 22.1.0, SVG Export Plug-In . SVG Version: 6.00 Build 0)  -->
<svg version="1.1" id="Calque_1" xmlns="http://www.w3.org/2000/svg" xmlns:xlink="http://www.w3.org/1999/xlink" x="0px" y="0px"
	 viewBox="0 0 78 78" style="enable-background:new 0 0 78 78;" xml:space="preserve">
<style type="text/css">
	.st0{fill:#EA4A6D;}
</style>
<path class="st0" d="M38.9,0.4c-10.5,0-11.9,0-16.2,0s-7,0.7-9.5,1.8S8.7,4.6,6.5,6.7S3,10.9,2,13.7c-0.7,2.5-1.4,5.3-1.8,9.5
	c0,3.9,0,5.3,0,15.8s0,11.9,0.4,16.2s0.7,7,1.8,9.5c1.1,2.5,2.5,4.6,4.6,7c2.1,2.1,4.2,3.5,7,4.6c2.5,1.1,5.3,1.8,9.5,1.8
	c3.5-0.4,4.9-0.4,15.5-0.4s11.9,0,16.2-0.4c4.2-0.4,7-1.1,9.5-1.8c2.5-1.1,4.6-2.5,7-4.6c2.1-2.1,3.5-4.2,4.6-7
	c1.1-2.5,1.8-5.3,1.8-9.5c-0.4-3.5-0.4-4.9-0.4-15.5s0-11.9-0.4-16.2c-0.4-4.2-1.1-7-1.8-9.5c-1.1-2.5-2.5-4.6-4.6-7
	c-2.1-2.1-4.2-3.5-7-4.6C61.4,0.7,58.5,0,54.3,0C50.8,0.4,49.4,0.4,38.9,0.4z M38.9,7.4c10.2,0,11.6,0,15.8,0.4c3.9,0.4,6,0.7,7,1.4
	c1.8,0.7,3.2,1.8,4.6,2.8c1.4,1.4,2.1,2.8,2.8,4.6c0.4,1.4,1.1,3.5,1.4,7c0,3.9,0,5.3,0,15.5s0,11.6-0.4,15.8c-0.4,3.9-0.7,6-1.4,7
	C68,63.6,67,65,65.9,66.4c-1.4,1.4-2.8,2.1-4.6,2.8c-1.4,0.4-3.5,1.1-7.4,1.4c-3.5,0-4.9,0-15.1,0s-11.6,0-15.8,0
	c-3.9-0.4-6-0.7-7.4-1.4c-1.8-0.7-3.2-1.8-4.6-2.8C9.7,65,9,63.9,8.3,62.2c-0.4-1.4-1.1-3.5-1.4-7.4c0-4.2,0-5.3,0-15.5
	s0-11.6,0.4-15.8c0-3.9,0.7-6,1.4-7.4c0.7-1.8,1.8-3.2,2.8-4.6c1.4-1.4,2.5-2.1,4.6-2.8c1.4-0.4,3.5-1.1,7-1.4
	C27.3,7.4,28.3,7,38.9,7.4L38.9,7.4z M38.9,19c-10.9,0-20,8.8-20,20c0,10.9,8.8,20,20,20c10.9,0,20-8.8,20-20
	C58.9,28.1,49.8,19,38.9,19z M38.9,52c-7,0-13-5.6-13-13s6-13,13-13s13,6,13,13S45.9,52,38.9,52z M64.2,18.3c0,2.5-2.1,4.6-4.6,4.6
	c-2.5,0-4.6-2.1-4.6-4.6s2.1-4.6,4.6-4.6C62.1,13.7,64.2,15.8,64.2,18.3z"/>
</svg>
