<?xml version="1.0" encoding="utf-8"?>
<!-- Generator: Adobe Illustrator 22.1.0, SVG Export Plug-In . SVG Version: 6.00 Build 0)  -->
<svg version="1.1" id="Calque_1" xmlns="http://www.w3.org/2000/svg" xmlns:xlink="http://www.w3.org/1999/xlink" x="0px" y="0px"
	 viewBox="0 0 78 78" style="enable-background:new 0 0 78 78;" xml:space="preserve">
<style type="text/css">
	.st0{fill:#00C4FF;}
</style>
<path class="st0" d="M39,0C28.4,0,27.1,0,22.9,0.2c-4.2,0.2-7,0.8-9.5,1.8c-2.6,1-4.7,2.3-6.9,4.5S3,10.9,2,13.5
	c-1,2.5-1.6,5.3-1.8,9.5C0,27.1,0,28.4,0,39s0,11.9,0.2,16.1c0.2,4.2,0.8,7,1.8,9.5c1,2.6,2.3,4.7,4.5,6.9c2.2,2.2,4.3,3.5,6.9,4.5
	c2.5,1,5.3,1.6,9.5,1.8C27.1,78,28.4,78,39,78s11.9,0,16.1-0.2c4.2-0.2,7-0.9,9.5-1.8c2.6-1,4.7-2.3,6.9-4.5
	c2.2-2.2,3.5-4.3,4.5-6.9c1-2.5,1.6-5.3,1.8-9.5C78,50.9,78,49.6,78,39s0-11.9-0.2-16.1c-0.2-4.2-0.9-7-1.8-9.5
	c-1-2.6-2.3-4.7-4.5-6.9C69.3,4.4,67.1,3,64.5,2c-2.5-1-5.3-1.6-9.5-1.8C50.9,0,49.6,0,39,0z M39,7c10.4,0,11.7,0.1,15.8,0.2
	c3.8,0.2,5.9,0.8,7.2,1.3c1.8,0.7,3.1,1.6,4.5,2.9c1.4,1.4,2.2,2.7,2.9,4.5c0.5,1.4,1.2,3.4,1.3,7.2C70.9,27.4,71,28.6,71,39
	s0,11.7-0.2,15.8c-0.2,3.8-0.8,5.9-1.4,7.2c-0.7,1.8-1.6,3.1-2.9,4.5c-1.4,1.4-2.7,2.2-4.5,2.9c-1.4,0.5-3.5,1.2-7.3,1.3
	c-4.1,0.2-5.4,0.2-15.8,0.2c-10.4,0-11.7,0-15.8-0.2c-3.8-0.2-5.9-0.8-7.3-1.4c-1.8-0.7-3.1-1.6-4.5-2.9C10,65.1,9.1,63.8,8.4,62
	c-0.5-1.4-1.2-3.5-1.4-7.3C6.9,50.6,6.9,49.3,6.9,39c0-10.4,0.1-11.7,0.2-15.8c0.2-3.8,0.8-5.9,1.4-7.3c0.7-1.9,1.6-3.1,2.9-4.5
	c1.4-1.4,2.6-2.2,4.5-2.9c1.4-0.5,3.4-1.2,7.2-1.4c4.1-0.1,5.4-0.2,15.8-0.2L39,7z M39,19c-11.1,0-20,9-20,20c0,11.1,9,20,20,20
	c11.1,0,20-9,20-20C59,27.9,50.1,19,39,19z M39,52c-7.2,0-13-5.8-13-13s5.8-13,13-13s13,5.8,13,13S46.2,52,39,52z M64.5,18.2
	c0,2.6-2.1,4.7-4.7,4.7c-2.6,0-4.7-2.1-4.7-4.7s2.1-4.7,4.7-4.7C62.4,13.5,64.5,15.6,64.5,18.2z"/>
</svg>
